<mxfile host="app.diagrams.net" modified="2024-03-09T11:53:12.962Z" agent="Mozilla/5.0 (X11; Linux x86_64; rv:123.0) Gecko/20100101 Firefox/123.0" etag="kYYyzoDvAlTB3JROBZ-B" version="24.0.2" type="github">
  <diagram name="Page-1" id="rsNicCcus0xSVT3Tk-3s">
    <mxGraphModel dx="2219" dy="546" grid="1" gridSize="10" guides="1" tooltips="1" connect="1" arrows="1" fold="1" page="1" pageScale="1" pageWidth="1169" pageHeight="827" math="0" shadow="0">
      <root>
        <mxCell id="0" />
        <mxCell id="1" parent="0" />
        <mxCell id="eIDbD3syQlqxodY-8ELt-19" style="edgeStyle=orthogonalEdgeStyle;rounded=0;orthogonalLoop=1;jettySize=auto;html=1;entryX=0;entryY=0.5;entryDx=0;entryDy=0;strokeColor=none;shape=link;" edge="1" parent="1" source="eIDbD3syQlqxodY-8ELt-1" target="eIDbD3syQlqxodY-8ELt-4">
          <mxGeometry relative="1" as="geometry" />
        </mxCell>
        <mxCell id="eIDbD3syQlqxodY-8ELt-21" style="rounded=0;orthogonalLoop=1;jettySize=auto;html=1;exitX=1;exitY=0.75;exitDx=0;exitDy=0;shape=link;fillColor=#60a917;strokeColor=#2D7600;" edge="1" parent="1" source="eIDbD3syQlqxodY-8ELt-1" target="eIDbD3syQlqxodY-8ELt-8">
          <mxGeometry relative="1" as="geometry" />
        </mxCell>
        <mxCell id="eIDbD3syQlqxodY-8ELt-34" value="7. Send and Receive Emails" style="edgeLabel;html=1;align=center;verticalAlign=middle;resizable=0;points=[];" vertex="1" connectable="0" parent="eIDbD3syQlqxodY-8ELt-21">
          <mxGeometry x="-0.0861" y="1" relative="1" as="geometry">
            <mxPoint as="offset" />
          </mxGeometry>
        </mxCell>
        <mxCell id="eIDbD3syQlqxodY-8ELt-1" value="Internet" style="image;aspect=fixed;perimeter=ellipsePerimeter;html=1;align=center;shadow=0;dashed=0;spacingTop=3;image=img/lib/active_directory/internet_cloud.svg;" vertex="1" parent="1">
          <mxGeometry x="50" y="251" width="95.24" height="60" as="geometry" />
        </mxCell>
        <mxCell id="eIDbD3syQlqxodY-8ELt-16" style="edgeStyle=orthogonalEdgeStyle;rounded=0;orthogonalLoop=1;jettySize=auto;html=1;entryX=0;entryY=0.5;entryDx=0;entryDy=0;shape=link;fillColor=#d80073;strokeColor=#A50040;" edge="1" parent="1" source="eIDbD3syQlqxodY-8ELt-2" target="eIDbD3syQlqxodY-8ELt-1">
          <mxGeometry relative="1" as="geometry" />
        </mxCell>
        <mxCell id="eIDbD3syQlqxodY-8ELt-24" value="2. Receive Events" style="edgeLabel;html=1;align=center;verticalAlign=middle;resizable=0;points=[];" vertex="1" connectable="0" parent="eIDbD3syQlqxodY-8ELt-16">
          <mxGeometry x="0.039" y="4" relative="1" as="geometry">
            <mxPoint as="offset" />
          </mxGeometry>
        </mxCell>
        <mxCell id="eIDbD3syQlqxodY-8ELt-17" style="rounded=0;orthogonalLoop=1;jettySize=auto;html=1;entryX=0;entryY=0.75;entryDx=0;entryDy=0;shape=link;fillColor=#d80073;strokeColor=#A50040;" edge="1" parent="1" source="eIDbD3syQlqxodY-8ELt-2" target="eIDbD3syQlqxodY-8ELt-3">
          <mxGeometry relative="1" as="geometry" />
        </mxCell>
        <mxCell id="eIDbD3syQlqxodY-8ELt-27" value="3. Send Alerts" style="edgeLabel;html=1;align=center;verticalAlign=middle;resizable=0;points=[];" vertex="1" connectable="0" parent="eIDbD3syQlqxodY-8ELt-17">
          <mxGeometry x="0.001" y="4" relative="1" as="geometry">
            <mxPoint as="offset" />
          </mxGeometry>
        </mxCell>
        <mxCell id="eIDbD3syQlqxodY-8ELt-30" style="rounded=0;orthogonalLoop=1;jettySize=auto;html=1;shape=link;fillColor=#1ba1e2;strokeColor=#006EAF;" edge="1" parent="1" source="eIDbD3syQlqxodY-8ELt-2" target="eIDbD3syQlqxodY-8ELt-3">
          <mxGeometry relative="1" as="geometry">
            <Array as="points">
              <mxPoint x="-222" y="61" />
            </Array>
          </mxGeometry>
        </mxCell>
        <mxCell id="eIDbD3syQlqxodY-8ELt-37" value="8. Send Response Action" style="edgeLabel;html=1;align=center;verticalAlign=middle;resizable=0;points=[];" vertex="1" connectable="0" parent="eIDbD3syQlqxodY-8ELt-30">
          <mxGeometry x="-0.5993" y="1" relative="1" as="geometry">
            <mxPoint as="offset" />
          </mxGeometry>
        </mxCell>
        <mxCell id="eIDbD3syQlqxodY-8ELt-2" value="Wazuh Manager" style="image;aspect=fixed;perimeter=ellipsePerimeter;html=1;align=center;shadow=0;dashed=0;spacingTop=3;image=img/lib/active_directory/internet_cloud.svg;" vertex="1" parent="1">
          <mxGeometry x="-270" y="251" width="95.24" height="60" as="geometry" />
        </mxCell>
        <mxCell id="eIDbD3syQlqxodY-8ELt-9" style="edgeStyle=orthogonalEdgeStyle;rounded=0;orthogonalLoop=1;jettySize=auto;html=1;shape=link;fillColor=#fa6800;strokeColor=#C73500;" edge="1" parent="1" source="eIDbD3syQlqxodY-8ELt-3" target="eIDbD3syQlqxodY-8ELt-1">
          <mxGeometry relative="1" as="geometry" />
        </mxCell>
        <mxCell id="eIDbD3syQlqxodY-8ELt-25" value="4. Enrich IOCs" style="edgeLabel;html=1;align=center;verticalAlign=middle;resizable=0;points=[];" vertex="1" connectable="0" parent="eIDbD3syQlqxodY-8ELt-9">
          <mxGeometry x="0.175" y="-1" relative="1" as="geometry">
            <mxPoint as="offset" />
          </mxGeometry>
        </mxCell>
        <mxCell id="eIDbD3syQlqxodY-8ELt-18" style="rounded=0;orthogonalLoop=1;jettySize=auto;html=1;entryX=0;entryY=0.25;entryDx=0;entryDy=0;shape=link;fillColor=#d80073;strokeColor=#A50040;" edge="1" parent="1" source="eIDbD3syQlqxodY-8ELt-3" target="eIDbD3syQlqxodY-8ELt-4">
          <mxGeometry relative="1" as="geometry" />
        </mxCell>
        <mxCell id="eIDbD3syQlqxodY-8ELt-26" value="5. Send Alerts" style="edgeLabel;html=1;align=center;verticalAlign=middle;resizable=0;points=[];" vertex="1" connectable="0" parent="eIDbD3syQlqxodY-8ELt-18">
          <mxGeometry x="-0.1369" y="4" relative="1" as="geometry">
            <mxPoint as="offset" />
          </mxGeometry>
        </mxCell>
        <mxCell id="eIDbD3syQlqxodY-8ELt-28" style="rounded=0;orthogonalLoop=1;jettySize=auto;html=1;exitX=0.75;exitY=1;exitDx=0;exitDy=0;entryX=1;entryY=0.25;entryDx=0;entryDy=0;shape=link;elbow=vertical;fillColor=#60a917;strokeColor=#2D7600;" edge="1" parent="1" source="eIDbD3syQlqxodY-8ELt-3" target="eIDbD3syQlqxodY-8ELt-1">
          <mxGeometry relative="1" as="geometry">
            <Array as="points">
              <mxPoint x="230" y="231" />
            </Array>
          </mxGeometry>
        </mxCell>
        <mxCell id="eIDbD3syQlqxodY-8ELt-33" value="6. Send Emails" style="edgeLabel;html=1;align=center;verticalAlign=middle;resizable=0;points=[];" vertex="1" connectable="0" parent="eIDbD3syQlqxodY-8ELt-28">
          <mxGeometry x="-0.1216" y="1" relative="1" as="geometry">
            <mxPoint as="offset" />
          </mxGeometry>
        </mxCell>
        <mxCell id="eIDbD3syQlqxodY-8ELt-29" style="rounded=0;orthogonalLoop=1;jettySize=auto;html=1;exitX=0;exitY=1;exitDx=0;exitDy=0;entryX=0;entryY=0.25;entryDx=0;entryDy=0;shape=link;fillColor=#1ba1e2;strokeColor=#006EAF;" edge="1" parent="1" source="eIDbD3syQlqxodY-8ELt-3" target="eIDbD3syQlqxodY-8ELt-1">
          <mxGeometry relative="1" as="geometry">
            <Array as="points">
              <mxPoint x="-30" y="221" />
            </Array>
          </mxGeometry>
        </mxCell>
        <mxCell id="eIDbD3syQlqxodY-8ELt-3" value="Shuffle" style="image;aspect=fixed;perimeter=ellipsePerimeter;html=1;align=center;shadow=0;dashed=0;spacingTop=3;image=img/lib/active_directory/internet_cloud.svg;" vertex="1" parent="1">
          <mxGeometry x="50" y="31" width="95.24" height="60" as="geometry" />
        </mxCell>
        <mxCell id="eIDbD3syQlqxodY-8ELt-4" value="The Hive" style="image;aspect=fixed;perimeter=ellipsePerimeter;html=1;align=center;shadow=0;dashed=0;spacingTop=3;image=img/lib/active_directory/internet_cloud.svg;" vertex="1" parent="1">
          <mxGeometry x="410" y="251" width="95.24" height="60" as="geometry" />
        </mxCell>
        <mxCell id="eIDbD3syQlqxodY-8ELt-15" style="edgeStyle=orthogonalEdgeStyle;rounded=0;orthogonalLoop=1;jettySize=auto;html=1;entryX=0.5;entryY=1;entryDx=0;entryDy=0;shape=link;fillColor=#e3c800;strokeColor=#B09500;" edge="1" parent="1" source="eIDbD3syQlqxodY-8ELt-6" target="eIDbD3syQlqxodY-8ELt-1">
          <mxGeometry relative="1" as="geometry" />
        </mxCell>
        <mxCell id="eIDbD3syQlqxodY-8ELt-6" value="Router" style="image;aspect=fixed;html=1;points=[];align=center;fontSize=12;image=img/lib/azure2/networking/Virtual_Router.svg;" vertex="1" parent="1">
          <mxGeometry x="77.62" y="421" width="40" height="40" as="geometry" />
        </mxCell>
        <mxCell id="eIDbD3syQlqxodY-8ELt-22" style="edgeStyle=orthogonalEdgeStyle;rounded=0;orthogonalLoop=1;jettySize=auto;html=1;shape=link;fillColor=#d80073;strokeColor=#A50040;" edge="1" parent="1" target="eIDbD3syQlqxodY-8ELt-6">
          <mxGeometry relative="1" as="geometry">
            <mxPoint x="97.61999999999989" y="581" as="sourcePoint" />
          </mxGeometry>
        </mxCell>
        <mxCell id="eIDbD3syQlqxodY-8ELt-23" value="1. Send Events" style="edgeLabel;html=1;align=center;verticalAlign=middle;resizable=0;points=[];" vertex="1" connectable="0" parent="eIDbD3syQlqxodY-8ELt-22">
          <mxGeometry x="-0.0333" y="1" relative="1" as="geometry">
            <mxPoint as="offset" />
          </mxGeometry>
        </mxCell>
        <mxCell id="eIDbD3syQlqxodY-8ELt-7" value="Windows 11 Client" style="fontColor=#ffffff;verticalAlign=top;verticalLabelPosition=bottom;labelPosition=center;align=center;html=1;outlineConnect=0;fillColor=#1ba1e2;strokeColor=#006EAF;gradientDirection=north;strokeWidth=2;shape=mxgraph.networks.pc;" vertex="1" parent="1">
          <mxGeometry x="47.620000000000005" y="591" width="100" height="70" as="geometry" />
        </mxCell>
        <mxCell id="eIDbD3syQlqxodY-8ELt-8" value="&lt;div&gt;SOC Analyst&lt;/div&gt;" style="verticalAlign=top;verticalLabelPosition=bottom;labelPosition=center;align=center;html=1;outlineConnect=0;fillColor=#dae8fc;strokeColor=#6c8ebf;gradientDirection=north;strokeWidth=2;shape=mxgraph.networks.pc;" vertex="1" parent="1">
          <mxGeometry x="430" y="451" width="100" height="70" as="geometry" />
        </mxCell>
        <mxCell id="eIDbD3syQlqxodY-8ELt-31" style="rounded=0;orthogonalLoop=1;jettySize=auto;html=1;entryX=0;entryY=0.5;entryDx=0;entryDy=0;entryPerimeter=0;shape=link;fillColor=#1ba1e2;strokeColor=#006EAF;" edge="1" parent="1" source="eIDbD3syQlqxodY-8ELt-2">
          <mxGeometry relative="1" as="geometry">
            <mxPoint x="47.61999999999989" y="606" as="targetPoint" />
            <Array as="points">
              <mxPoint x="-222" y="606" />
            </Array>
          </mxGeometry>
        </mxCell>
        <mxCell id="eIDbD3syQlqxodY-8ELt-36" value="8. Perform Response Action" style="edgeLabel;html=1;align=center;verticalAlign=middle;resizable=0;points=[];" vertex="1" connectable="0" parent="eIDbD3syQlqxodY-8ELt-31">
          <mxGeometry x="-0.5407" relative="1" as="geometry">
            <mxPoint as="offset" />
          </mxGeometry>
        </mxCell>
        <mxCell id="eIDbD3syQlqxodY-8ELt-32" style="rounded=0;orthogonalLoop=1;jettySize=auto;html=1;entryX=0;entryY=0.5;entryDx=0;entryDy=0;entryPerimeter=0;shape=link;fillColor=#1ba1e2;strokeColor=#006EAF;" edge="1" parent="1" source="eIDbD3syQlqxodY-8ELt-1" target="eIDbD3syQlqxodY-8ELt-8">
          <mxGeometry relative="1" as="geometry">
            <Array as="points">
              <mxPoint x="260" y="486" />
            </Array>
          </mxGeometry>
        </mxCell>
        <mxCell id="eIDbD3syQlqxodY-8ELt-35" value="8.Send Response Action" style="edgeLabel;html=1;align=center;verticalAlign=middle;resizable=0;points=[];" vertex="1" connectable="0" parent="eIDbD3syQlqxodY-8ELt-32">
          <mxGeometry x="-0.1513" y="1" relative="1" as="geometry">
            <mxPoint as="offset" />
          </mxGeometry>
        </mxCell>
        <mxCell id="eIDbD3syQlqxodY-8ELt-39" style="edgeStyle=orthogonalEdgeStyle;rounded=0;orthogonalLoop=1;jettySize=auto;html=1;" edge="1" parent="1" source="eIDbD3syQlqxodY-8ELt-38">
          <mxGeometry relative="1" as="geometry">
            <mxPoint x="-100" y="797" as="targetPoint" />
          </mxGeometry>
        </mxCell>
        <mxCell id="eIDbD3syQlqxodY-8ELt-38" value="&lt;div&gt;Windows 11&lt;/div&gt;&lt;div&gt;Send Events&lt;br&gt;&lt;/div&gt;" style="text;html=1;align=center;verticalAlign=middle;resizable=0;points=[];autosize=1;strokeColor=none;fillColor=none;" vertex="1" parent="1">
          <mxGeometry x="-280" y="777" width="90" height="40" as="geometry" />
        </mxCell>
        <mxCell id="eIDbD3syQlqxodY-8ELt-42" style="rounded=0;orthogonalLoop=1;jettySize=auto;html=1;" edge="1" parent="1">
          <mxGeometry relative="1" as="geometry">
            <mxPoint x="320" y="797" as="targetPoint" />
            <mxPoint x="220" y="797" as="sourcePoint" />
          </mxGeometry>
        </mxCell>
        <mxCell id="eIDbD3syQlqxodY-8ELt-41" value="&lt;div&gt;Wazuh Manager&lt;/div&gt;&lt;div&gt;Trigger Alerts and Perform&amp;nbsp; Response Actions&lt;br&gt;&lt;/div&gt;" style="text;html=1;align=center;verticalAlign=middle;resizable=0;points=[];autosize=1;strokeColor=none;fillColor=none;" vertex="1" parent="1">
          <mxGeometry x="-60" y="777" width="270" height="40" as="geometry" />
        </mxCell>
        <mxCell id="eIDbD3syQlqxodY-8ELt-44" style="edgeStyle=orthogonalEdgeStyle;rounded=0;orthogonalLoop=1;jettySize=auto;html=1;" edge="1" parent="1" source="eIDbD3syQlqxodY-8ELt-43">
          <mxGeometry relative="1" as="geometry">
            <mxPoint x="475.2399999999998" y="717" as="targetPoint" />
          </mxGeometry>
        </mxCell>
        <mxCell id="eIDbD3syQlqxodY-8ELt-46" style="edgeStyle=orthogonalEdgeStyle;rounded=0;orthogonalLoop=1;jettySize=auto;html=1;" edge="1" parent="1" source="eIDbD3syQlqxodY-8ELt-43">
          <mxGeometry relative="1" as="geometry">
            <mxPoint x="475.2399999999998" y="867" as="targetPoint" />
          </mxGeometry>
        </mxCell>
        <mxCell id="eIDbD3syQlqxodY-8ELt-43" value="&lt;div&gt;Shuffle&lt;/div&gt;&lt;div&gt;Receive Alerts and Send Responsive Actions&lt;br&gt;&lt;/div&gt;" style="text;html=1;align=center;verticalAlign=middle;resizable=0;points=[];autosize=1;strokeColor=none;fillColor=none;" vertex="1" parent="1">
          <mxGeometry x="345.24" y="777" width="260" height="40" as="geometry" />
        </mxCell>
        <mxCell id="eIDbD3syQlqxodY-8ELt-45" value="&lt;div&gt;OSINT&lt;/div&gt;&lt;div&gt;Enrich IOCs&lt;br&gt;&lt;/div&gt;" style="text;html=1;align=center;verticalAlign=middle;resizable=0;points=[];autosize=1;strokeColor=none;fillColor=none;" vertex="1" parent="1">
          <mxGeometry x="430.24" y="661" width="90" height="40" as="geometry" />
        </mxCell>
        <mxCell id="eIDbD3syQlqxodY-8ELt-48" value="&lt;div&gt;The Hive&lt;/div&gt;&lt;div&gt;Cereate Alert in Case Management&lt;br&gt;&lt;/div&gt;" style="text;html=1;align=center;verticalAlign=middle;resizable=0;points=[];autosize=1;strokeColor=none;fillColor=none;" vertex="1" parent="1">
          <mxGeometry x="370.24" y="877" width="210" height="40" as="geometry" />
        </mxCell>
      </root>
    </mxGraphModel>
  </diagram>
</mxfile>
